<svg width="24" height="22" viewBox="0 0 24 22" fill="none" xmlns="http://www.w3.org/2000/svg">
<path d="M22.7742 5.60146C22.5065 6.41472 22.2388 7.22798 21.9757 8.04124C21.2741 10.2176 20.5817 12.3986 19.8847 14.575C19.7185 15.0926 19.5293 15.2358 18.9892 15.2358C15.6151 15.2358 12.2409 15.2358 8.8668 15.2312C8.67756 15.2312 8.59448 15.2866 8.53909 15.4669C8.37292 15.9613 8.18829 16.4511 7.99904 16.9871C8.10982 16.9871 8.19752 16.9871 8.28522 16.9871C11.8348 16.9871 15.3889 16.9871 18.9385 16.9871C19.0308 16.9871 19.1231 16.9871 19.2154 16.9963C19.5339 17.0379 19.7555 17.2874 19.7462 17.5832C19.737 17.8835 19.5062 18.1284 19.1923 18.1515C18.9846 18.1654 18.7723 18.1562 18.5184 18.1562C18.9662 18.7245 19.1416 19.3252 18.9985 19.9952C18.8877 20.522 18.6061 20.9517 18.163 21.2613C17.3645 21.8204 16.3352 21.802 15.5228 21.0811C14.7335 20.3834 14.6689 19.3576 15.3566 18.1746C13.8611 18.1746 12.3702 18.1746 10.8516 18.1746C11.3224 18.8077 11.4978 19.4823 11.2393 20.2355C11.087 20.6791 10.8101 21.0349 10.4269 21.2937C9.60533 21.8482 8.53447 21.7511 7.80979 21.0488C7.19128 20.4527 6.81739 19.3114 7.68978 18.1562C7.52822 18.1562 7.39437 18.1562 7.2559 18.1562C6.73431 18.1469 6.48044 17.7911 6.65122 17.2967C6.86817 16.6821 7.08973 16.0676 7.31129 15.4576C7.33436 15.3929 7.35282 15.3282 7.38052 15.2358C7.26974 15.2358 7.17743 15.2358 7.08973 15.2358C6.69739 15.2266 6.42967 15.0048 6.36043 14.6259C6.1158 13.3089 5.87577 11.992 5.63575 10.6751C5.21571 8.38318 4.79106 6.09126 4.37564 3.79473C4.35256 3.66535 4.29717 3.60528 4.17716 3.55907C3.2817 3.21251 2.38624 2.85671 1.49077 2.50091C1.11689 2.35304 0.936875 2.02034 1.01996 1.67841C1.12612 1.24867 1.54616 1.03149 1.98466 1.19784C2.54778 1.4104 3.10629 1.63682 3.66481 1.85862C4.15408 2.04807 4.63874 2.24676 5.12802 2.4316C5.43728 2.54711 5.60806 2.76429 5.66806 3.08313C6.08349 5.34732 6.49891 7.61613 6.91433 9.88031C7.14512 11.1418 7.37591 12.4033 7.60208 13.6647C7.62516 13.7987 7.68055 13.845 7.82364 13.845C11.3732 13.8403 14.9273 13.8403 18.4769 13.845C18.5923 13.845 18.6661 13.8265 18.7077 13.6925C19.5062 11.188 20.3094 8.68815 21.1079 6.18368C21.1125 6.16982 21.1079 6.15595 21.1079 6.11437C20.9509 6.10513 20.794 6.09126 20.6371 6.08202C18.1584 5.97574 15.6797 5.87409 13.201 5.76781C11.664 5.70312 10.1269 5.6338 8.58986 5.56449C8.15136 5.54601 7.86056 5.24566 7.87441 4.83441C7.88826 4.43702 8.20213 4.15515 8.6314 4.16901C9.32377 4.19212 10.0208 4.22908 10.7131 4.25681C12.1948 4.3215 13.6718 4.39081 15.1535 4.45088C17.4614 4.55254 19.7693 4.64958 22.0772 4.75123C22.4465 4.7651 22.6496 4.98227 22.7742 5.30573C22.7742 5.40277 22.7742 5.4998 22.7742 5.60146ZM16.9629 18.6229C16.4506 18.6182 16.0259 19.0341 16.0213 19.5424C16.0167 20.0507 16.4459 20.4758 16.9537 20.4758C17.4568 20.4758 17.8768 20.0645 17.8814 19.5609C17.8907 19.0526 17.4753 18.6275 16.9629 18.6229ZM10.1915 19.547C10.1915 19.0295 9.77611 18.6229 9.25453 18.6229C8.74679 18.6275 8.34061 19.0341 8.33599 19.5424C8.33138 20.0553 8.74679 20.4758 9.26376 20.4804C9.77612 20.4804 10.1915 20.0645 10.1915 19.547Z" fill="black" stroke="black" stroke-width="0.5" stroke-miterlimit="10"/>
</svg>
