<svg width="25" height="22" viewBox="0 0 25 22" fill="none" xmlns="http://www.w3.org/2000/svg">
<path d="M1.20485 7.54399C1.27976 7.09401 1.32383 6.63963 1.4384 6.19847C2.04213 3.88683 3.395 2.19721 5.70414 1.46931C8.17193 0.68847 10.3224 1.31932 12.1028 3.19863C12.3143 3.41921 12.4994 3.66184 12.7065 3.90889C12.9092 3.67067 13.0943 3.43244 13.3014 3.20745C14.2841 2.14869 15.4563 1.41196 16.9061 1.22668C19.1447 0.939927 21.0617 1.62371 22.5335 3.34862C24.0054 5.07353 24.4373 7.11166 24.0979 9.32625C23.882 10.7291 23.243 11.9511 22.4058 13.076C21.3085 14.5539 19.9688 15.798 18.5895 17.0023C16.9634 18.4184 15.3241 19.8257 13.6892 21.233C13.059 21.7756 12.3848 21.7976 11.7811 21.2771C9.64819 19.4242 7.51091 17.5802 5.40448 15.6965C4.33364 14.7436 3.37738 13.676 2.58857 12.4673C1.84823 11.3247 1.35027 10.0939 1.23569 8.72628C1.23129 8.67334 1.21366 8.62481 1.20044 8.57629C1.20485 8.23219 1.20485 7.88809 1.20485 7.54399ZM12.7021 20.2933C12.7594 20.2492 12.8078 20.2139 12.8519 20.1742C14.6719 18.5993 16.5007 17.0376 18.3031 15.4495C19.5634 14.3377 20.762 13.1599 21.6919 11.7482C22.582 10.4027 23.0183 8.93803 22.8156 7.31459C22.5952 5.56321 21.8461 4.11182 20.2949 3.19863C18.8495 2.34721 17.3204 2.24133 15.7868 2.98247C14.879 3.41921 14.2092 4.12946 13.6451 4.95442C13.5658 5.07353 13.4909 5.19705 13.4072 5.31175C13.037 5.81908 12.376 5.81467 12.0014 5.31617C11.6753 4.87942 11.3756 4.41621 11.0011 4.01918C9.79802 2.74424 8.30854 2.25015 6.59431 2.62072C4.74347 3.02217 3.52721 4.19564 2.91467 5.96025C2.20077 8.01161 2.54009 9.94386 3.7211 11.7438C4.45263 12.8599 5.3516 13.8392 6.33872 14.726C7.96922 16.195 9.63497 17.6287 11.2831 19.0713C11.7546 19.4816 12.2261 19.883 12.7021 20.2933Z" fill="black" stroke="black" stroke-width="0.5" stroke-miterlimit="10"/>
</svg>
