<svg width="25" height="24" viewBox="0 0 25 24" fill="none" xmlns="http://www.w3.org/2000/svg">
<path d="M17.1466 17.7951C14.6183 19.7582 11.7872 20.4474 8.66956 19.7582C6.27904 19.2343 4.35119 17.944 2.90806 15.9645C-0.0773376 11.873 0.495514 6.2707 4.24104 2.80785C7.79928 -0.48406 13.4837 -0.583314 17.2016 2.52112C21.195 5.85714 22.0653 12.0329 18.5401 16.4056C18.6062 16.4773 18.6778 16.5545 18.7494 16.6262C20.3743 18.2528 22.0047 19.8795 23.6241 21.5172C23.7894 21.6826 23.9215 21.9142 23.9766 22.1402C24.0758 22.5648 23.8499 22.9563 23.4809 23.1493C23.1008 23.3478 22.6657 23.2872 22.3407 22.9729C21.8615 22.5042 21.3933 22.03 20.9251 21.5558C19.7244 20.3592 18.5291 19.1571 17.3283 17.9606C17.2732 17.9054 17.2127 17.8558 17.1466 17.7951ZM10.8893 2.18476C6.53792 2.17373 2.96866 5.73032 2.94662 10.1085C2.92459 14.4812 6.48834 18.0708 10.8618 18.0819C15.2187 18.0929 18.799 14.5363 18.821 10.1747C18.8431 5.77994 15.2848 2.19579 10.8893 2.18476Z" fill="black" stroke="black" stroke-width="0.5" stroke-miterlimit="10"/>
</svg>
